<svg version="1.1" xmlns="http://www.w3.org/2000/svg" xmlns:xlink="http://www.w3.org/1999/xlink" width="222.14801" height="187" viewBox="0,0,222.14801,187"><g transform="translate(-208.92605,-86.50001)"><g data-paper-data="{&quot;isPaintingLayer&quot;:true}" fill="#ffffff" fill-rule="evenodd" stroke="none" stroke-width="1" stroke-linecap="butt" stroke-linejoin="miter" stroke-miterlimit="10" stroke-dasharray="" stroke-dashoffset="0" style="mix-blend-mode: normal"><path d="M367.16506,128.50001l-13.857,24h22.001v30.6042c-3.117,1.0337 -6.154,2.4466 -9.093,4.2088v-28.8129c0,7.6642 -12.64,22.4489 -17.907,22.4489v56.548c6.76,-14.356 16.183,-24.946 27,-29.616v25.102c5.1,1.296 25,18.908 25,40.517v-65.619c10.817,4.67 20.24,15.26 27,29.617v-56.549c-4.74,0 -17.907,-14.7848 -17.907,-22.449v28.813c-2.939,-1.7621 -5.976,-3.175 -9.093,-4.2087v-30.6043h21.231c2.215,-9.1528 5.483,-17.313 9.534,-24h-30.765v-10.1034c-5.1,-1.0207 -25,-14.8851 -25,-31.8966v42zM341.40506,152.50001h-0.096v74h-25v-74h-95.7785c-1.5448,-8.8683 -4.04223,-16.9939 -7.28014,-24h142.01164zM222.05797,165.50001h83.7865v24h-84.5552c0.6672,-5.1423 1.0198,-10.4981 1.0198,-16c0,-2.7047 -0.0852,-5.374 -0.2511,-8zM305.84443,202.50002v24h-96.91838c4.18586,-6.628 7.58158,-14.795 9.90511,-24z"/></g></g></svg>